<svg xmlns="http://www.w3.org/2000/svg" width="25" height="24" fill="none"><path fill="#2F350C" d="M18.102 15.984c-.37 0-.726-.14-.989-.39l-4.604-4.382-4.605 4.382a1.403 1.403 0 0 1-.454.298 1.461 1.461 0 0 1-1.081.009 1.406 1.406 0 0 1-.46-.29 1.328 1.328 0 0 1-.305-.438 1.274 1.274 0 0 1 .01-1.029c.073-.162.18-.309.313-.432L11.52 8.39c.262-.25.618-.39.989-.39.37 0 .726.14.988.39l5.594 5.322c.195.186.328.423.382.681a1.27 1.27 0 0 1-.08.77c-.105.242-.284.45-.514.596-.23.146-.5.225-.777.225Z"/></svg>