<svg xmlns="http://www.w3.org/2000/svg" width="48" height="48" fill="none"><rect width="48" height="48" fill="#2F350C" fill-opacity=".3" rx="24"/><path fill="#fff" stroke="#fff" d="M27.549 15.166c.124 0 .247.018.367.055l.118.044c.116.05.225.118.323.202l.095.09c.09.095.168.205.228.325l.055.124c.05.127.08.262.093.399l.006.137a1.456 1.456 0 0 1-.062.407l-.046.129c-.051.126-.12.242-.203.344l-.088.099-.006.006-5.842 6.14-.328.344.328.345 5.842 6.14c.136.142.24.314.305.506l.052.196c.038.202.033.41-.014.607l-.061.194c-.075.189-.187.356-.326.489l-.15.122a1.214 1.214 0 0 1-.698.223c-.288 0-.57-.105-.798-.301l-.094-.09-7.096-7.457a1.414 1.414 0 0 1-.382-.974c0-.323.107-.631.296-.874l.085-.1 7.097-7.456.006-.007c.09-.097.19-.178.3-.242l.113-.058c.116-.052.237-.086.36-.1l.125-.008Z"/></svg>