<svg xmlns="http://www.w3.org/2000/svg" width="48" height="48" fill="none"><rect width="48" height="48" fill="#2F350C" fill-opacity=".6" rx="24"/><path fill="#fff" stroke="#fff" d="M20.452 15.166c.165.002.33.039.483.108.116.052.224.122.32.208l.094.092.006.007 7.097 7.457c.242.254.382.604.382.973 0 .324-.107.632-.296.874l-.086.1-7.097 7.457a1.233 1.233 0 0 1-.892.392l-.184-.015a1.208 1.208 0 0 1-.352-.113l-.163-.096a1.33 1.33 0 0 1-.388-.43L19.289 32a1.449 1.449 0 0 1-.099-.597l.025-.204c.038-.202.117-.39.231-.551l.125-.151 5.842-6.14.328-.345-.328-.345-5.842-6.14-.007-.005-.087-.099a1.377 1.377 0 0 1-.146-.221l-.058-.123a1.439 1.439 0 0 1-.098-.397l-.008-.139a1.46 1.46 0 0 1 .054-.406l.043-.13a1.39 1.39 0 0 1 .199-.35l.086-.099c.09-.095.193-.174.304-.236l.114-.056c.116-.05.237-.08.36-.093l.125-.006Z"/></svg>