<svg xmlns="http://www.w3.org/2000/svg" width="44" height="44" fill="none"><path fill="#2F350C" d="M34.941 12.833H9.06c-.458 0-.897-.193-1.22-.537A1.893 1.893 0 0 1 7.333 11c0-.486.182-.953.506-1.296a1.676 1.676 0 0 1 1.22-.537h25.882c.458 0 .897.193 1.22.537.324.343.506.81.506 1.296s-.182.953-.506 1.296a1.675 1.675 0 0 1-1.22.537ZM34.941 23.833H9.06c-.458 0-.897-.193-1.22-.537A1.893 1.893 0 0 1 7.333 22c0-.486.182-.953.506-1.296a1.675 1.675 0 0 1 1.22-.537h25.882c.458 0 .897.193 1.22.537.324.343.506.81.506 1.296s-.182.953-.506 1.296a1.675 1.675 0 0 1-1.22.537ZM34.941 34.833H9.06c-.458 0-.897-.193-1.22-.537A1.893 1.893 0 0 1 7.333 33c0-.486.182-.953.506-1.296a1.675 1.675 0 0 1 1.22-.537h25.882c.458 0 .897.193 1.22.537.324.343.506.81.506 1.296s-.182.953-.506 1.296a1.675 1.675 0 0 1-1.22.537Z"/></svg>