<svg xmlns="http://www.w3.org/2000/svg" width="32" height="34" fill="none"><path fill="url(#a)" d="M.913.8C.522 1.2.295 1.822.295 2.628v28.75c0 .806.227 1.428.618 1.828l.097.088L17.533 17.19v-.38L1.01.706.913.8Z"/><path fill="url(#b)" d="m23.035 22.56-5.502-5.37v-.38l5.509-5.37.123.07 6.523 3.618c1.862 1.027 1.862 2.717 0 3.75l-6.523 3.613-.13.07Z"/><path fill="url(#c)" d="M23.165 22.49 17.533 17 .913 33.206c.619.634 1.627.71 2.774.076l19.478-10.791Z"/><path fill="url(#d)" d="M23.165 11.51 3.687.717C2.54.09 1.532.167.913.8L17.533 17l5.632-5.49Z"/><defs><linearGradient id="a" x1="16.066" x2="-5.744" y1="31.677" y2="9.308" gradientUnits="userSpaceOnUse"><stop stop-color="#00A0FF"/><stop offset=".007" stop-color="#00A1FF"/><stop offset=".26" stop-color="#00BEFF"/><stop offset=".512" stop-color="#00D2FF"/><stop offset=".76" stop-color="#00DFFF"/><stop offset="1" stop-color="#00E3FF"/></linearGradient><linearGradient id="b" x1="32.112" x2="-.15" y1="16.998" y2="16.998" gradientUnits="userSpaceOnUse"><stop stop-color="#FFE000"/><stop offset=".409" stop-color="#FFBD00"/><stop offset=".775" stop-color="orange"/><stop offset="1" stop-color="#FF9C00"/></linearGradient><linearGradient id="c" x1="20.103" x2="-9.474" y1="14.015" y2="-16.32" gradientUnits="userSpaceOnUse"><stop stop-color="#FF3A44"/><stop offset="1" stop-color="#C31162"/></linearGradient><linearGradient id="d" x1="-3.27" x2="9.937" y1="42.771" y2="29.225" gradientUnits="userSpaceOnUse"><stop stop-color="#32A071"/><stop offset=".069" stop-color="#2DA771"/><stop offset=".476" stop-color="#15CF74"/><stop offset=".801" stop-color="#06E775"/><stop offset="1" stop-color="#00F076"/></linearGradient></defs></svg>