<svg aria-hidden="true" style="position: absolute; width: 0; height: 0; overflow: hidden;" version="1.1" xmlns="http://www.w3.org/2000/svg" xmlns:xlink="http://www.w3.org/1999/xlink">
<defs>
<symbol id="icon-menu" viewBox="0 0 32 32">
<path fill="#2f350c" style="fill: var(--color1, #2f350c)" d="M25.412 9.333h-18.823c-0.333 0-0.652-0.14-0.887-0.391-0.228-0.245-0.369-0.575-0.369-0.938 0-0.002 0-0.003 0-0.005v0c0-0.353 0.132-0.693 0.368-0.943 0.222-0.239 0.537-0.388 0.887-0.391h18.824c0.333 0 0.652 0.14 0.887 0.391s0.368 0.589 0.368 0.943-0.132 0.693-0.368 0.943c-0.222 0.239-0.537 0.389-0.887 0.391h-0zM25.412 17.333h-18.823c-0.333 0-0.652-0.14-0.887-0.391-0.228-0.245-0.369-0.575-0.369-0.938 0-0.002 0-0.003 0-0.005v0c0-0.353 0.132-0.693 0.368-0.943 0.222-0.239 0.537-0.389 0.887-0.391h18.824c0.333 0 0.652 0.14 0.887 0.391s0.368 0.589 0.368 0.943-0.132 0.693-0.368 0.943c-0.222 0.239-0.537 0.389-0.887 0.391h-0zM25.412 25.333h-18.823c-0.333 0-0.652-0.14-0.887-0.391-0.228-0.245-0.369-0.575-0.369-0.938 0-0.002 0-0.003 0-0.005v0c0-0.353 0.132-0.693 0.368-0.943 0.222-0.239 0.537-0.389 0.887-0.391h18.824c0.333 0 0.652 0.14 0.887 0.391s0.368 0.589 0.368 0.943-0.132 0.693-0.368 0.943c-0.222 0.239-0.537 0.389-0.887 0.391h-0z"></path>
</symbol>
<symbol id="icon-arrow_faq" viewBox="0 0 33 32">
<path fill="#2f350c" style="fill: var(--color1, #2f350c)" d="M24.136 21.312c-0.493 0-0.968-0.187-1.319-0.52l-6.139-5.843-6.14 5.843c-0.169 0.166-0.37 0.3-0.593 0.393l-0.012 0.005c-0.218 0.091-0.47 0.144-0.736 0.144-0.254 0-0.496-0.049-0.719-0.137l0.013 0.005c-0.238-0.093-0.441-0.224-0.614-0.387l0.001 0.001c-0.17-0.162-0.307-0.356-0.402-0.573l-0.004-0.011c-0.087-0.198-0.138-0.428-0.138-0.671 0-0.254 0.056-0.495 0.156-0.712l-0.004 0.011c0.097-0.216 0.24-0.412 0.417-0.576l7.457-7.096c0.349-0.333 0.824-0.52 1.319-0.52 0.493 0 0.968 0.187 1.317 0.52l7.459 7.096c0.26 0.248 0.437 0.564 0.509 0.908 0.023 0.104 0.036 0.224 0.036 0.347 0 0.246-0.052 0.48-0.147 0.691l0.004-0.011c-0.14 0.323-0.379 0.6-0.685 0.795s-0.667 0.3-1.036 0.3z"></path>
</symbol>
<symbol id="icon-arrow_left" viewBox="0 0 32 32">
<path fill="#2f350c" style="fill: var(--color1, #2f350c)" opacity="0.3" d="M16 0c8.837 0 16 7.163 16 16s-7.163 16-16 16c-8.837 0-16-7.163-16-16s7.163-16 16-16z"></path>
<path fill="#fff" style="fill: var(--color2, #fff); stroke: var(--color2, #fff)" stroke="#fff" stroke-linejoin="miter" stroke-linecap="butt" stroke-miterlimit="4" stroke-width="0.6667" d="M18.366 10.111c0.083 0 0.165 0.012 0.245 0.037l0.079 0.029c0.077 0.033 0.15 0.079 0.215 0.135l0.063 0.060c0.060 0.063 0.112 0.137 0.152 0.217l0.037 0.083c0.033 0.085 0.053 0.175 0.062 0.266l0.004 0.091c-0.001 0.097-0.016 0.19-0.043 0.278l0.002-0.007-0.031 0.086c-0.034 0.084-0.080 0.161-0.135 0.229l-0.059 0.066-0.004 0.004-4.113 4.323 4.113 4.323c0.091 0.095 0.16 0.209 0.203 0.337l0.035 0.131c0.025 0.135 0.022 0.273-0.009 0.405l-0.041 0.129c-0.050 0.126-0.125 0.237-0.217 0.326l-0.1 0.081c-0.129 0.093-0.291 0.148-0.465 0.149h-0c-0.192 0-0.38-0.070-0.532-0.201l-0.063-0.060-4.731-4.971c-0.158-0.168-0.255-0.395-0.255-0.644 0-0.002 0-0.003 0-0.005v0c0-0.215 0.071-0.421 0.197-0.583l0.057-0.067 4.735-4.975c0.060-0.065 0.127-0.119 0.2-0.161l0.075-0.039c0.077-0.035 0.158-0.057 0.24-0.067l0.083-0.005z"></path>
</symbol>
<symbol id="icon-arrow_right" viewBox="0 0 32 32">
<path fill="#2f350c" style="fill: var(--color1, #2f350c)" opacity="0.6" d="M16 0c8.837 0 16 7.163 16 16s-7.163 16-16 16c-8.837 0-16-7.163-16-16s7.163-16 16-16z"></path>
<path fill="#fff" style="fill: var(--color2, #fff); stroke: var(--color2, #fff)" stroke="#fff" stroke-linejoin="miter" stroke-linecap="butt" stroke-miterlimit="4" stroke-width="0.6667" d="M13.635 10.111c0.11 0.001 0.22 0.026 0.322 0.072 0.077 0.035 0.149 0.081 0.213 0.139l0.063 0.061 0.004 0.005 4.731 4.971c0.161 0.169 0.255 0.403 0.255 0.649 0 0.216-0.071 0.421-0.197 0.583l-0.057 0.067-4.731 4.971c-0.149 0.159-0.36 0.259-0.594 0.261h-0l-0.123-0.010c-0.088-0.014-0.167-0.040-0.239-0.077l0.005 0.002-0.109-0.064c-0.106-0.076-0.193-0.172-0.256-0.282l-0.002-0.004-0.058-0.12c-0.042-0.105-0.067-0.226-0.067-0.354 0-0.016 0-0.031 0.001-0.047l-0 0.002 0.017-0.136c0.025-0.135 0.078-0.26 0.154-0.367l0.083-0.101 4.113-4.323-4.176-4.393c-0.035-0.043-0.067-0.091-0.095-0.142l-0.002-0.005-0.039-0.082c-0.032-0.077-0.055-0.167-0.065-0.261l-0-0.004-0.005-0.093c-0-0.002-0-0.005-0-0.008 0-0.093 0.013-0.184 0.038-0.269l-0.002 0.007 0.029-0.087c0.035-0.089 0.080-0.166 0.134-0.235l-0.002 0.002 0.057-0.066c0.060-0.063 0.129-0.116 0.203-0.157l0.076-0.037c0.077-0.033 0.158-0.053 0.24-0.062l0.083-0.004z"></path>
</symbol>
<symbol id="icon-dot" viewBox="0 0 32 32">
<path fill="#fff" style="fill: var(--color2, #fff)" d="M16 0c8.837 0 16 7.163 16 16s-7.163 16-16 16c-8.837 0-16-7.163-16-16s7.163-16 16-16z"></path>
</symbol>
</defs>
<defs>
    <symbol id="icon-back" viewBox="0 0 41 32">
      <path d="M38.204 12.837h-28.17l6.738-7.336c.281-.295.505-.648.659-1.038s.235-.81.238-1.235c.003-.425-.071-.846-.219-1.239s-.366-.75-.642-1.051c-.276-.3-.604-.538-.965-.699a2.722 2.722 0 0 0-2.272.022 2.95 2.95 0 0 0-.954.717L.863 13.775c-.274.297-.491.65-.639 1.039a3.45 3.45 0 0 0 0 2.452c.148.389.365.742.639 1.039l11.754 12.797c.554.583 1.297.905 2.067.898s1.508-.344 2.052-.937c.545-.593.854-1.396.861-2.235s-.29-1.647-.825-2.25l-6.738-7.343h28.17c.779 0 1.527-.337 2.078-.937s.861-1.414.861-2.262c0-.849-.31-1.662-.861-2.262s-1.298-.937-2.078-.937z"/>
    </symbol>
  </defs>
</svg>
